<svg aria-roledescription="er" role="graphics-document document" viewBox="-102.10774993896484 0 682.8834838867188 744" style="max-width: 682.883px; background-color: white;" xmlns:xlink="http://www.w3.org/1999/xlink" xmlns="http://www.w3.org/2000/svg" width="100%" id="mermaid-0"><style>#mermaid-0{font-family:"trebuchet ms",verdana,arial,sans-serif;font-size:16px;fill:#000000;}#mermaid-0 .error-icon{fill:#552222;}#mermaid-0 .error-text{fill:#552222;stroke:#552222;}#mermaid-0 .edge-thickness-normal{stroke-width:2px;}#mermaid-0 .edge-thickness-thick{stroke-width:3.5px;}#mermaid-0 .edge-pattern-solid{stroke-dasharray:0;}#mermaid-0 .edge-pattern-dashed{stroke-dasharray:3;}#mermaid-0 .edge-pattern-dotted{stroke-dasharray:2;}#mermaid-0 .marker{fill:#000000;stroke:#000000;}#mermaid-0 .marker.cross{stroke:#000000;}#mermaid-0 svg{font-family:"trebuchet ms",verdana,arial,sans-serif;font-size:16px;}#mermaid-0 .entityBox{fill:#cde498;stroke:#13540c;}#mermaid-0 .attributeBoxOdd{fill:#ffffff;stroke:#13540c;}#mermaid-0 .attributeBoxEven{fill:#f2f2f2;stroke:#13540c;}#mermaid-0 .relationshipLabelBox{fill:hsl(78.1578947368, 58.4615384615%, 84.5098039216%);opacity:0.7;background-color:hsl(78.1578947368, 58.4615384615%, 84.5098039216%);}#mermaid-0 .relationshipLabelBox rect{opacity:0.5;}#mermaid-0 .relationshipLine{stroke:#000000;}#mermaid-0 .entityTitleText{text-anchor:middle;font-size:18px;fill:#000000;}#mermaid-0 :root{--mermaid-font-family:"trebuchet ms",verdana,arial,sans-serif;}</style><g/><defs><marker orient="auto" markerHeight="18" markerWidth="18" refY="9" refX="0" id="ONLY_ONE_START"><path d="M9,0 L9,18 M15,0 L15,18" fill="none" stroke="gray"/></marker></defs><defs><marker orient="auto" markerHeight="18" markerWidth="18" refY="9" refX="18" id="ONLY_ONE_END"><path d="M3,0 L3,18 M9,0 L9,18" fill="none" stroke="gray"/></marker></defs><defs><marker orient="auto" markerHeight="18" markerWidth="30" refY="9" refX="0" id="ZERO_OR_ONE_START"><circle r="6" cy="9" cx="21" fill="white" stroke="gray"/><path d="M9,0 L9,18" fill="none" stroke="gray"/></marker></defs><defs><marker orient="auto" markerHeight="18" markerWidth="30" refY="9" refX="30" id="ZERO_OR_ONE_END"><circle r="6" cy="9" cx="9" fill="white" stroke="gray"/><path d="M21,0 L21,18" fill="none" stroke="gray"/></marker></defs><defs><marker orient="auto" markerHeight="36" markerWidth="45" refY="18" refX="18" id="ONE_OR_MORE_START"><path d="M0,18 Q 18,0 36,18 Q 18,36 0,18 M42,9 L42,27" fill="none" stroke="gray"/></marker></defs><defs><marker orient="auto" markerHeight="36" markerWidth="45" refY="18" refX="27" id="ONE_OR_MORE_END"><path d="M3,9 L3,27 M9,18 Q27,0 45,18 Q27,36 9,18" fill="none" stroke="gray"/></marker></defs><defs><marker orient="auto" markerHeight="36" markerWidth="57" refY="18" refX="18" id="ZERO_OR_MORE_START"><circle r="6" cy="18" cx="48" fill="white" stroke="gray"/><path d="M0,18 Q18,0 36,18 Q18,36 0,18" fill="none" stroke="gray"/></marker></defs><defs><marker orient="auto" markerHeight="36" markerWidth="57" refY="18" refX="39" id="ZERO_OR_MORE_END"><circle r="6" cy="18" cx="9" fill="white" stroke="gray"/><path d="M21,18 Q39,0 57,18 Q39,36 21,18" fill="none" stroke="gray"/></marker></defs><path style="stroke: gray; fill: none;" marker-start="url(#ZERO_OR_MORE_START)" marker-end="url(#ZERO_OR_MORE_END)" d="M77.72050252950416,132L74.78699943254578,140.33333333333334C71.85349633558741,148.66666666666666,65.98649014167066,165.33333333333334,68.76074960178991,182C71.53500906190915,198.66666666666666,82.95053417606441,215.33333333333334,88.65829673314204,223.66666666666666L94.36605929021965,232" class="er relationshipLine"/><path style="stroke: gray; fill: none;" marker-start="url(#ZERO_OR_MORE_START)" marker-end="url(#ZERO_OR_ONE_END)" d="M30.920429229736328,119.43675697889452L14.953605016072592,129.86396414907878C-1.0132191975911458,140.29117131926301,-32.94686762491862,161.1455856596315,-48.91369183858236,183.73945949648245C-64.8805160522461,206.33333333333334,-64.8805160522461,230.66666666666666,-64.8805160522461,255C-64.8805160522461,279.3333333333333,-64.8805160522461,303.6666666666667,-50.73376337687174,325.29144797915507C-36.5870107014974,346.91622929164345,-8.293505350748697,365.83245858328684,5.853247324625651,375.29057322910853L20,384.7486878749302" class="er relationshipLine"/><path style="stroke: gray; fill: none;" marker-start="url(#ZERO_OR_MORE_START)" marker-end="url(#ZERO_OR_MORE_END)" d="M160.1194839477539,268.27272727272725L197.6194839477539,278.2272727272727C235.1194839477539,288.1818181818182,310.1194839477539,308.09090909090907,354.1365779648479,328.2121212121212C398.1536719819419,348.3333333333333,411.18786001612995,368.6666666666667,417.70495403322394,378.8333333333333L424.222048050318,389" class="er relationshipLine"/><path style="stroke: gray; fill: none;" marker-start="url(#ZERO_OR_MORE_START)" marker-end="url(#ZERO_OR_ONE_END)" d="M86.48934696145254,278L77.9277031258361,286.3333333333333C69.36605929021967,294.6666666666667,52.24277161898679,311.3333333333333,49.02300812525069,328C45.80324463151459,344.6666666666667,56.48700531527527,361.3333333333333,61.82888565715561,369.6666666666667L67.17076599903595,378" class="er relationshipLine"/><path style="stroke: gray; fill: none;" marker-start="url(#ZERO_OR_MORE_START)" marker-end="url(#ONLY_ONE_END)" d="M125.87290860528816,232L131.58067116236577,223.66666666666666C137.28843371944342,215.33333333333334,148.70395883359865,198.66666666666666,149.48358926750885,182C150.26321970141908,165.33333333333334,140.40695545508427,148.66666666666666,135.47882333191686,140.33333333333334L130.55069120874944,132" class="er relationshipLine"/><path style="stroke: gray; fill: none;" marker-start="url(#ZERO_OR_MORE_START)" marker-end="url(#ZERO_OR_MORE_END)" d="M124.43572326399322,378L126.21635004462,369.6666666666667C127.99697682524679,361.3333333333333,131.55823038650036,344.6666666666667,130.4849758885883,328C129.41172139067626,311.3333333333333,123.70395883359866,294.6666666666667,120.85007755505984,286.3333333333333L117.99619627652103,278" class="er relationshipLine"/><path style="stroke: gray; fill: none;" marker-start="url(#ZERO_OR_MORE_START)" marker-end="url(#ZERO_OR_MORE_END)" d="M200.2389678955078,384.7486878749302L214.38572057088217,375.29057322910853C228.5324732462565,365.83245858328684,256.8259785970052,346.91622929164345,270.9727312723796,325.29144797915507C285.1194839477539,303.6666666666667,285.1194839477539,279.3333333333333,285.1194839477539,255C285.1194839477539,230.66666666666666,285.1194839477539,206.33333333333334,264.92404619852704,182.76081743212535C244.72860844930014,159.18830153091739,204.33773295084634,136.37660306183477,184.14229520161948,124.97075382729348L163.94685745239258,113.56490459275217" class="er relationshipLine"/><path style="stroke: gray; fill: none;" marker-start="url(#ZERO_OR_MORE_START)" marker-end="url(#ZERO_OR_MORE_END)" d="M473.32703111756524,612L475.2924399225967,603.6666666666666C477.2578487276281,595.3333333333334,481.188666337691,578.6666666666666,480.98171047035777,560.1666666666666C480.7747546030246,541.6666666666666,476.43002525829525,521.3333333333334,474.2576605859306,511.1666666666667L472.08529591356586,501" class="er relationshipLine"/><path style="stroke: gray; fill: none;" marker-start="url(#ZERO_OR_MORE_START)" marker-end="url(#ONLY_ONE_END)" d="M472.08529591356586,389L474.2576605859305,378.8333333333333C476.43002525829525,368.6666666666667,480.7747546030246,348.3333333333333,428.78045260872256,327.6222222222222C376.7861506144206,306.9111111111111,268.4528172810872,285.82222222222225,214.28615061442056,275.27777777777777L160.1194839477539,264.73333333333335" class="er relationshipLine"/><path style="stroke: gray; fill: none;" marker-start="url(#ZERO_OR_MORE_START)" marker-end="url(#ONLY_ONE_END)" d="M424.222048050318,501L417.70495403322394,511.1666666666667C411.18786001612995,521.3333333333334,398.1536719819419,541.6666666666666,397.53280437994226,560.1666666666666C396.9119367779426,578.6666666666666,408.7043896081313,595.3333333333334,414.60061602322565,603.6666666666666L420.49684243831996,612" class="er relationshipLine"/><g transform="translate(30.920429229736328,20 )" id="entity-Pool-f80fb849-3ded-504c-8685-8077b27428a2"><rect height="112" width="133.02642822265625" y="0" x="0" class="er entityBox"/><text style="dominant-baseline: middle; text-anchor: middle; font-size: 12px;" transform="translate(66.51321411132812,12)" y="0" x="0" id="text-entity-Pool-f80fb849-3ded-504c-8685-8077b27428a2" class="er entityLabel">Pool</text><rect height="22" width="54.095550537109375" y="24" x="0" class="er attributeBoxOdd"/><text style="dominant-baseline: middle; font-size: 10.2px;" transform="translate(5,35)" y="0" x="0" id="text-entity-Pool-f80fb849-3ded-504c-8685-8077b27428a2-attr-1-type" class="er entityLabel">String</text><rect height="22" width="56.243194580078125" y="24" x="54.095550537109375" class="er attributeBoxOdd"/><text style="dominant-baseline: middle; font-size: 10.2px;" transform="translate(59.095550537109375,35)" y="0" x="0" id="text-entity-Pool-f80fb849-3ded-504c-8685-8077b27428a2-attr-1-name" class="er entityLabel">id</text><rect height="22" width="22.68768310546875" y="24" x="110.3387451171875" class="er attributeBoxOdd"/><text style="dominant-baseline: middle; font-size: 10.2px;" transform="translate(115.3387451171875,35)" y="0" x="0" id="text-entity-Pool-f80fb849-3ded-504c-8685-8077b27428a2-attr-1-key" class="er entityLabel">PK</text><rect height="22" width="54.095550537109375" y="46" x="0" class="er attributeBoxEven"/><text style="dominant-baseline: middle; font-size: 10.2px;" transform="translate(5,57)" y="0" x="0" id="text-entity-Pool-f80fb849-3ded-504c-8685-8077b27428a2-attr-2-type" class="er entityLabel">String</text><rect height="22" width="56.243194580078125" y="46" x="54.095550537109375" class="er attributeBoxEven"/><text style="dominant-baseline: middle; font-size: 10.2px;" transform="translate(59.095550537109375,57)" y="0" x="0" id="text-entity-Pool-f80fb849-3ded-504c-8685-8077b27428a2-attr-2-name" class="er entityLabel">title</text><rect height="22" width="22.68768310546875" y="46" x="110.3387451171875" class="er attributeBoxEven"/><text style="dominant-baseline: middle; font-size: 10.2px;" transform="translate(115.3387451171875,57)" y="0" x="0" id="text-entity-Pool-f80fb849-3ded-504c-8685-8077b27428a2-attr-2-key" class="er entityLabel"/><rect height="22" width="54.095550537109375" y="68" x="0" class="er attributeBoxOdd"/><text style="dominant-baseline: middle; font-size: 10.2px;" transform="translate(5,79)" y="0" x="0" id="text-entity-Pool-f80fb849-3ded-504c-8685-8077b27428a2-attr-3-type" class="er entityLabel">String</text><rect height="22" width="56.243194580078125" y="68" x="54.095550537109375" class="er attributeBoxOdd"/><text style="dominant-baseline: middle; font-size: 10.2px;" transform="translate(59.095550537109375,79)" y="0" x="0" id="text-entity-Pool-f80fb849-3ded-504c-8685-8077b27428a2-attr-3-name" class="er entityLabel">code</text><rect height="22" width="22.68768310546875" y="68" x="110.3387451171875" class="er attributeBoxOdd"/><text style="dominant-baseline: middle; font-size: 10.2px;" transform="translate(115.3387451171875,79)" y="0" x="0" id="text-entity-Pool-f80fb849-3ded-504c-8685-8077b27428a2-attr-3-key" class="er entityLabel"/><rect height="22" width="54.095550537109375" y="90" x="0" class="er attributeBoxEven"/><text style="dominant-baseline: middle; font-size: 10.2px;" transform="translate(5,101)" y="0" x="0" id="text-entity-Pool-f80fb849-3ded-504c-8685-8077b27428a2-attr-4-type" class="er entityLabel">DateTime</text><rect height="22" width="56.243194580078125" y="90" x="54.095550537109375" class="er attributeBoxEven"/><text style="dominant-baseline: middle; font-size: 10.2px;" transform="translate(59.095550537109375,101)" y="0" x="0" id="text-entity-Pool-f80fb849-3ded-504c-8685-8077b27428a2-attr-4-name" class="er entityLabel">createdAt</text><rect height="22" width="22.68768310546875" y="90" x="110.3387451171875" class="er attributeBoxEven"/><text style="dominant-baseline: middle; font-size: 10.2px;" transform="translate(115.3387451171875,101)" y="0" x="0" id="text-entity-Pool-f80fb849-3ded-504c-8685-8077b27428a2-attr-4-key" class="er entityLabel"/></g><g transform="translate(60.119483947753906,232 )" id="entity-Participant-1b15d7dd-2236-59ff-b08e-47bf86f1c4ca"><rect height="46" width="100" y="0" x="0" class="er entityBox"/><text style="dominant-baseline: middle; text-anchor: middle; font-size: 12px;" transform="translate(50,12)" y="0" x="0" id="text-entity-Participant-1b15d7dd-2236-59ff-b08e-47bf86f1c4ca" class="er entityLabel">Participant</text><rect height="22" width="44.39861551920573" y="24" x="0" class="er attributeBoxOdd"/><text style="dominant-baseline: middle; font-size: 10.2px;" transform="translate(5,35)" y="0" x="0" id="text-entity-Participant-1b15d7dd-2236-59ff-b08e-47bf86f1c4ca-attr-1-type" class="er entityLabel">String</text><rect height="22" width="25.911142985026043" y="24" x="44.39861551920573" class="er attributeBoxOdd"/><text style="dominant-baseline: middle; font-size: 10.2px;" transform="translate(49.39861551920573,35)" y="0" x="0" id="text-entity-Participant-1b15d7dd-2236-59ff-b08e-47bf86f1c4ca-attr-1-name" class="er entityLabel">id</text><rect height="22" width="29.69024149576823" y="24" x="70.30975850423177" class="er attributeBoxOdd"/><text style="dominant-baseline: middle; font-size: 10.2px;" transform="translate(75.30975850423177,35)" y="0" x="0" id="text-entity-Participant-1b15d7dd-2236-59ff-b08e-47bf86f1c4ca-attr-1-key" class="er entityLabel">PK</text></g><g transform="translate(20,378 )" id="entity-User-818c511a-4a32-5484-ba70-875d765a9175"><rect height="134" width="180.2389678955078" y="0" x="0" class="er entityBox"/><text style="dominant-baseline: middle; text-anchor: middle; font-size: 12px;" transform="translate(90.1194839477539,12)" y="0" x="0" id="text-entity-User-818c511a-4a32-5484-ba70-875d765a9175" class="er entityLabel">User</text><rect height="22" width="54.095550537109375" y="24" x="0" class="er attributeBoxOdd"/><text style="dominant-baseline: middle; font-size: 10.2px;" transform="translate(5,35)" y="0" x="0" id="text-entity-User-818c511a-4a32-5484-ba70-875d765a9175-attr-1-type" class="er entityLabel">String</text><rect height="22" width="56.243194580078125" y="24" x="54.095550537109375" class="er attributeBoxOdd"/><text style="dominant-baseline: middle; font-size: 10.2px;" transform="translate(59.095550537109375,35)" y="0" x="0" id="text-entity-User-818c511a-4a32-5484-ba70-875d765a9175-attr-1-name" class="er entityLabel">id</text><rect height="22" width="22.68768310546875" y="24" x="110.3387451171875" class="er attributeBoxOdd"/><text style="dominant-baseline: middle; font-size: 10.2px;" transform="translate(115.3387451171875,35)" y="0" x="0" id="text-entity-User-818c511a-4a32-5484-ba70-875d765a9175-attr-1-key" class="er entityLabel">PK</text><rect height="22" width="47.21253967285156" y="24" x="133.02642822265625" class="er attributeBoxOdd"/><text style="dominant-baseline: middle; font-size: 10.2px;" transform="translate(138.02642822265625,35)" y="0" x="0" id="text-entity-User-818c511a-4a32-5484-ba70-875d765a9175-attr-1-comment" class="er entityLabel"/><rect height="22" width="54.095550537109375" y="46" x="0" class="er attributeBoxEven"/><text style="dominant-baseline: middle; font-size: 10.2px;" transform="translate(5,57)" y="0" x="0" id="text-entity-User-818c511a-4a32-5484-ba70-875d765a9175-attr-2-type" class="er entityLabel">String</text><rect height="22" width="56.243194580078125" y="46" x="54.095550537109375" class="er attributeBoxEven"/><text style="dominant-baseline: middle; font-size: 10.2px;" transform="translate(59.095550537109375,57)" y="0" x="0" id="text-entity-User-818c511a-4a32-5484-ba70-875d765a9175-attr-2-name" class="er entityLabel">name</text><rect height="22" width="22.68768310546875" y="46" x="110.3387451171875" class="er attributeBoxEven"/><text style="dominant-baseline: middle; font-size: 10.2px;" transform="translate(115.3387451171875,57)" y="0" x="0" id="text-entity-User-818c511a-4a32-5484-ba70-875d765a9175-attr-2-key" class="er entityLabel"/><rect height="22" width="47.21253967285156" y="46" x="133.02642822265625" class="er attributeBoxEven"/><text style="dominant-baseline: middle; font-size: 10.2px;" transform="translate(138.02642822265625,57)" y="0" x="0" id="text-entity-User-818c511a-4a32-5484-ba70-875d765a9175-attr-2-comment" class="er entityLabel"/><rect height="22" width="54.095550537109375" y="68" x="0" class="er attributeBoxOdd"/><text style="dominant-baseline: middle; font-size: 10.2px;" transform="translate(5,79)" y="0" x="0" id="text-entity-User-818c511a-4a32-5484-ba70-875d765a9175-attr-3-type" class="er entityLabel">String</text><rect height="22" width="56.243194580078125" y="68" x="54.095550537109375" class="er attributeBoxOdd"/><text style="dominant-baseline: middle; font-size: 10.2px;" transform="translate(59.095550537109375,79)" y="0" x="0" id="text-entity-User-818c511a-4a32-5484-ba70-875d765a9175-attr-3-name" class="er entityLabel">email</text><rect height="22" width="22.68768310546875" y="68" x="110.3387451171875" class="er attributeBoxOdd"/><text style="dominant-baseline: middle; font-size: 10.2px;" transform="translate(115.3387451171875,79)" y="0" x="0" id="text-entity-User-818c511a-4a32-5484-ba70-875d765a9175-attr-3-key" class="er entityLabel"/><rect height="22" width="47.21253967285156" y="68" x="133.02642822265625" class="er attributeBoxOdd"/><text style="dominant-baseline: middle; font-size: 10.2px;" transform="translate(138.02642822265625,79)" y="0" x="0" id="text-entity-User-818c511a-4a32-5484-ba70-875d765a9175-attr-3-comment" class="er entityLabel"/><rect height="22" width="54.095550537109375" y="90" x="0" class="er attributeBoxEven"/><text style="dominant-baseline: middle; font-size: 10.2px;" transform="translate(5,101)" y="0" x="0" id="text-entity-User-818c511a-4a32-5484-ba70-875d765a9175-attr-4-type" class="er entityLabel">String</text><rect height="22" width="56.243194580078125" y="90" x="54.095550537109375" class="er attributeBoxEven"/><text style="dominant-baseline: middle; font-size: 10.2px;" transform="translate(59.095550537109375,101)" y="0" x="0" id="text-entity-User-818c511a-4a32-5484-ba70-875d765a9175-attr-4-name" class="er entityLabel">avatarUrl</text><rect height="22" width="22.68768310546875" y="90" x="110.3387451171875" class="er attributeBoxEven"/><text style="dominant-baseline: middle; font-size: 10.2px;" transform="translate(115.3387451171875,101)" y="0" x="0" id="text-entity-User-818c511a-4a32-5484-ba70-875d765a9175-attr-4-key" class="er entityLabel"/><rect height="22" width="47.21253967285156" y="90" x="133.02642822265625" class="er attributeBoxEven"/><text style="dominant-baseline: middle; font-size: 10.2px;" transform="translate(138.02642822265625,101)" y="0" x="0" id="text-entity-User-818c511a-4a32-5484-ba70-875d765a9175-attr-4-comment" class="er entityLabel">nullable</text><rect height="22" width="54.095550537109375" y="112" x="0" class="er attributeBoxOdd"/><text style="dominant-baseline: middle; font-size: 10.2px;" transform="translate(5,123)" y="0" x="0" id="text-entity-User-818c511a-4a32-5484-ba70-875d765a9175-attr-5-type" class="er entityLabel">DateTime</text><rect height="22" width="56.243194580078125" y="112" x="54.095550537109375" class="er attributeBoxOdd"/><text style="dominant-baseline: middle; font-size: 10.2px;" transform="translate(59.095550537109375,123)" y="0" x="0" id="text-entity-User-818c511a-4a32-5484-ba70-875d765a9175-attr-5-name" class="er entityLabel">createdAt</text><rect height="22" width="22.68768310546875" y="112" x="110.3387451171875" class="er attributeBoxOdd"/><text style="dominant-baseline: middle; font-size: 10.2px;" transform="translate(115.3387451171875,123)" y="0" x="0" id="text-entity-User-818c511a-4a32-5484-ba70-875d765a9175-attr-5-key" class="er entityLabel"/><rect height="22" width="47.21253967285156" y="112" x="133.02642822265625" class="er attributeBoxOdd"/><text style="dominant-baseline: middle; font-size: 10.2px;" transform="translate(138.02642822265625,123)" y="0" x="0" id="text-entity-User-818c511a-4a32-5484-ba70-875d765a9175-attr-5-comment" class="er entityLabel"/></g><g transform="translate(359.46324157714844,612 )" id="entity-Game-87e52c75-2f34-5ffb-97f0-d4ba8ef70a3a"><rect height="112" width="201.31248474121094" y="0" x="0" class="er entityBox"/><text style="dominant-baseline: middle; text-anchor: middle; font-size: 12px;" transform="translate(100.65624237060547,12)" y="0" x="0" id="text-entity-Game-87e52c75-2f34-5ffb-97f0-d4ba8ef70a3a" class="er entityLabel">Game</text><rect height="22" width="54.095550537109375" y="24" x="0" class="er attributeBoxOdd"/><text style="dominant-baseline: middle; font-size: 10.2px;" transform="translate(5,35)" y="0" x="0" id="text-entity-Game-87e52c75-2f34-5ffb-97f0-d4ba8ef70a3a-attr-1-type" class="er entityLabel">String</text><rect height="22" width="124.52925109863281" y="24" x="54.095550537109375" class="er attributeBoxOdd"/><text style="dominant-baseline: middle; font-size: 10.2px;" transform="translate(59.095550537109375,35)" y="0" x="0" id="text-entity-Game-87e52c75-2f34-5ffb-97f0-d4ba8ef70a3a-attr-1-name" class="er entityLabel">id</text><rect height="22" width="22.68768310546875" y="24" x="178.6248016357422" class="er attributeBoxOdd"/><text style="dominant-baseline: middle; font-size: 10.2px;" transform="translate(183.6248016357422,35)" y="0" x="0" id="text-entity-Game-87e52c75-2f34-5ffb-97f0-d4ba8ef70a3a-attr-1-key" class="er entityLabel">PK</text><rect height="22" width="54.095550537109375" y="46" x="0" class="er attributeBoxEven"/><text style="dominant-baseline: middle; font-size: 10.2px;" transform="translate(5,57)" y="0" x="0" id="text-entity-Game-87e52c75-2f34-5ffb-97f0-d4ba8ef70a3a-attr-2-type" class="er entityLabel">DateTime</text><rect height="22" width="124.52925109863281" y="46" x="54.095550537109375" class="er attributeBoxEven"/><text style="dominant-baseline: middle; font-size: 10.2px;" transform="translate(59.095550537109375,57)" y="0" x="0" id="text-entity-Game-87e52c75-2f34-5ffb-97f0-d4ba8ef70a3a-attr-2-name" class="er entityLabel">date</text><rect height="22" width="22.68768310546875" y="46" x="178.6248016357422" class="er attributeBoxEven"/><text style="dominant-baseline: middle; font-size: 10.2px;" transform="translate(183.6248016357422,57)" y="0" x="0" id="text-entity-Game-87e52c75-2f34-5ffb-97f0-d4ba8ef70a3a-attr-2-key" class="er entityLabel"/><rect height="22" width="54.095550537109375" y="68" x="0" class="er attributeBoxOdd"/><text style="dominant-baseline: middle; font-size: 10.2px;" transform="translate(5,79)" y="0" x="0" id="text-entity-Game-87e52c75-2f34-5ffb-97f0-d4ba8ef70a3a-attr-3-type" class="er entityLabel">String</text><rect height="22" width="124.52925109863281" y="68" x="54.095550537109375" class="er attributeBoxOdd"/><text style="dominant-baseline: middle; font-size: 10.2px;" transform="translate(59.095550537109375,79)" y="0" x="0" id="text-entity-Game-87e52c75-2f34-5ffb-97f0-d4ba8ef70a3a-attr-3-name" class="er entityLabel">firstTeamCountryCode</text><rect height="22" width="22.68768310546875" y="68" x="178.6248016357422" class="er attributeBoxOdd"/><text style="dominant-baseline: middle; font-size: 10.2px;" transform="translate(183.6248016357422,79)" y="0" x="0" id="text-entity-Game-87e52c75-2f34-5ffb-97f0-d4ba8ef70a3a-attr-3-key" class="er entityLabel"/><rect height="22" width="54.095550537109375" y="90" x="0" class="er attributeBoxEven"/><text style="dominant-baseline: middle; font-size: 10.2px;" transform="translate(5,101)" y="0" x="0" id="text-entity-Game-87e52c75-2f34-5ffb-97f0-d4ba8ef70a3a-attr-4-type" class="er entityLabel">String</text><rect height="22" width="124.52925109863281" y="90" x="54.095550537109375" class="er attributeBoxEven"/><text style="dominant-baseline: middle; font-size: 10.2px;" transform="translate(59.095550537109375,101)" y="0" x="0" id="text-entity-Game-87e52c75-2f34-5ffb-97f0-d4ba8ef70a3a-attr-4-name" class="er entityLabel">secondTeamCountryCode</text><rect height="22" width="22.68768310546875" y="90" x="178.6248016357422" class="er attributeBoxEven"/><text style="dominant-baseline: middle; font-size: 10.2px;" transform="translate(183.6248016357422,101)" y="0" x="0" id="text-entity-Game-87e52c75-2f34-5ffb-97f0-d4ba8ef70a3a-attr-4-key" class="er entityLabel"/></g><g transform="translate(374.8672866821289,389 )" id="entity-Guess-533fb0d7-9d76-535c-acc1-453e87f76452"><rect height="112" width="170.50439453125" y="0" x="0" class="er entityBox"/><text style="dominant-baseline: middle; text-anchor: middle; font-size: 12px;" transform="translate(85.252197265625,12)" y="0" x="0" id="text-entity-Guess-533fb0d7-9d76-535c-acc1-453e87f76452" class="er entityLabel">Guess</text><rect height="22" width="54.095550537109375" y="24" x="0" class="er attributeBoxOdd"/><text style="dominant-baseline: middle; font-size: 10.2px;" transform="translate(5,35)" y="0" x="0" id="text-entity-Guess-533fb0d7-9d76-535c-acc1-453e87f76452-attr-1-type" class="er entityLabel">String</text><rect height="22" width="93.72116088867188" y="24" x="54.095550537109375" class="er attributeBoxOdd"/><text style="dominant-baseline: middle; font-size: 10.2px;" transform="translate(59.095550537109375,35)" y="0" x="0" id="text-entity-Guess-533fb0d7-9d76-535c-acc1-453e87f76452-attr-1-name" class="er entityLabel">id</text><rect height="22" width="22.68768310546875" y="24" x="147.81671142578125" class="er attributeBoxOdd"/><text style="dominant-baseline: middle; font-size: 10.2px;" transform="translate(152.81671142578125,35)" y="0" x="0" id="text-entity-Guess-533fb0d7-9d76-535c-acc1-453e87f76452-attr-1-key" class="er entityLabel">PK</text><rect height="22" width="54.095550537109375" y="46" x="0" class="er attributeBoxEven"/><text style="dominant-baseline: middle; font-size: 10.2px;" transform="translate(5,57)" y="0" x="0" id="text-entity-Guess-533fb0d7-9d76-535c-acc1-453e87f76452-attr-2-type" class="er entityLabel">Int</text><rect height="22" width="93.72116088867188" y="46" x="54.095550537109375" class="er attributeBoxEven"/><text style="dominant-baseline: middle; font-size: 10.2px;" transform="translate(59.095550537109375,57)" y="0" x="0" id="text-entity-Guess-533fb0d7-9d76-535c-acc1-453e87f76452-attr-2-name" class="er entityLabel">firstTeamPoints</text><rect height="22" width="22.68768310546875" y="46" x="147.81671142578125" class="er attributeBoxEven"/><text style="dominant-baseline: middle; font-size: 10.2px;" transform="translate(152.81671142578125,57)" y="0" x="0" id="text-entity-Guess-533fb0d7-9d76-535c-acc1-453e87f76452-attr-2-key" class="er entityLabel"/><rect height="22" width="54.095550537109375" y="68" x="0" class="er attributeBoxOdd"/><text style="dominant-baseline: middle; font-size: 10.2px;" transform="translate(5,79)" y="0" x="0" id="text-entity-Guess-533fb0d7-9d76-535c-acc1-453e87f76452-attr-3-type" class="er entityLabel">Int</text><rect height="22" width="93.72116088867188" y="68" x="54.095550537109375" class="er attributeBoxOdd"/><text style="dominant-baseline: middle; font-size: 10.2px;" transform="translate(59.095550537109375,79)" y="0" x="0" id="text-entity-Guess-533fb0d7-9d76-535c-acc1-453e87f76452-attr-3-name" class="er entityLabel">secondTeamPoints</text><rect height="22" width="22.68768310546875" y="68" x="147.81671142578125" class="er attributeBoxOdd"/><text style="dominant-baseline: middle; font-size: 10.2px;" transform="translate(152.81671142578125,79)" y="0" x="0" id="text-entity-Guess-533fb0d7-9d76-535c-acc1-453e87f76452-attr-3-key" class="er entityLabel"/><rect height="22" width="54.095550537109375" y="90" x="0" class="er attributeBoxEven"/><text style="dominant-baseline: middle; font-size: 10.2px;" transform="translate(5,101)" y="0" x="0" id="text-entity-Guess-533fb0d7-9d76-535c-acc1-453e87f76452-attr-4-type" class="er entityLabel">DateTime</text><rect height="22" width="93.72116088867188" y="90" x="54.095550537109375" class="er attributeBoxEven"/><text style="dominant-baseline: middle; font-size: 10.2px;" transform="translate(59.095550537109375,101)" y="0" x="0" id="text-entity-Guess-533fb0d7-9d76-535c-acc1-453e87f76452-attr-4-name" class="er entityLabel">createdAt</text><rect height="22" width="22.68768310546875" y="90" x="147.81671142578125" class="er attributeBoxEven"/><text style="dominant-baseline: middle; font-size: 10.2px;" transform="translate(152.81671142578125,101)" y="0" x="0" id="text-entity-Guess-533fb0d7-9d76-535c-acc1-453e87f76452-attr-4-key" class="er entityLabel"/></g><rect height="14" width="59.744140625" y="177.56979370117188" x="39.383262634277344" class="er relationshipLabelBox"/><text style="text-anchor: middle; dominant-baseline: middle; font-size: 12px;" y="184.56979370117188" x="69.25533294677734" id="rel1" class="er relationshipLabel">participant</text><rect height="14" width="34.470703125" y="242.19288635253906" x="-82.10774993896484" class="er relationshipLabelBox"/><text style="text-anchor: middle; dominant-baseline: middle; font-size: 12px;" y="249.19288635253906" x="-64.87239837646484" id="rel2" class="er relationshipLabel">owner</text><rect height="14" width="40.384765625" y="301.8711242675781" x="283.1863708496094" class="er relationshipLabelBox"/><text style="text-anchor: middle; dominant-baseline: middle; font-size: 12px;" y="308.8711242675781" x="303.3787536621094" id="rel3" class="er relationshipLabel">guesses</text><rect height="14" width="23.958984375" y="316.74609375" x="38.15516662597656" class="er relationshipLabelBox"/><text style="text-anchor: middle; dominant-baseline: middle; font-size: 12px;" y="323.74609375" x="50.13465881347656" id="rel4" class="er relationshipLabel">user</text><rect height="14" width="23.564453125" y="175.87863159179688" x="137.650390625" class="er relationshipLabelBox"/><text style="text-anchor: middle; dominant-baseline: middle; font-size: 12px;" y="182.87863159179688" x="149.4326171875" id="rel5" class="er relationshipLabel">pool</text><rect height="14" width="81.025390625" y="320.4210205078125" x="89.93293762207031" class="er relationshipLabelBox"/><text style="text-anchor: middle; dominant-baseline: middle; font-size: 12px;" y="327.4210205078125" x="130.4456329345703" id="rel6" class="er relationshipLabel">participatingAt</text><rect height="14" width="49.47265625" y="230.96632385253906" x="260.1260070800781" class="er relationshipLabelBox"/><text style="text-anchor: middle; dominant-baseline: middle; font-size: 12px;" y="237.96632385253906" x="284.8623352050781" id="rel7" class="er relationshipLabel">ownPools</text><rect height="14" width="40.384765625" y="549.4729614257812" x="460.69525146484375" class="er relationshipLabelBox"/><text style="text-anchor: middle; dominant-baseline: middle; font-size: 12px;" y="556.4729614257812" x="480.88763427734375" id="rel8" class="er relationshipLabel">guesses</text><rect height="14" width="59.744140625" y="294.138671875" x="307.5777282714844" class="er relationshipLabelBox"/><text style="text-anchor: middle; dominant-baseline: middle; font-size: 12px;" y="301.138671875" x="337.4497985839844" id="rel9" class="er relationshipLabel">participant</text><rect height="14" width="29.2890625" y="549.2410888671875" x="383.1968078613281" class="er relationshipLabelBox"/><text style="text-anchor: middle; dominant-baseline: middle; font-size: 12px;" y="556.2410888671875" x="397.8413391113281" id="rel10" class="er relationshipLabel">game</text></svg>